<?xml version="1.0" encoding="UTF-8"?>
<svg xmlns="http://www.w3.org/2000/svg" id="Layer_2" data-name="Layer 2" viewBox="0 0 170.08 70.87">
	<defs><style>.cls-1{fill:#007eff;}.cls-2{fill:#fff;}</style></defs>
	<title>Rectangle Blue</title>
	<rect class="cls-1" width="170.08" height="70.87"></rect>
	<path class="cls-2" d="M21.2,39.55a9.89,9.89,0,0,1,.72-3.76A9.66,9.66,0,0,1,24,32.65a9.28,9.28,0,0,1,13.4.06,9.63,9.63,0,0,1,2.07,3.15,9.78,9.78,0,0,1,.71,3.69,10.1,10.1,0,0,1-.7,3.77,9.24,9.24,0,0,1-2,3.12,9.82,9.82,0,0,1-3.14,2.17,9.24,9.24,0,0,1-7.23,0A9.28,9.28,0,0,1,24,46.47a9.78,9.78,0,0,1-2.78-6.92Zm14.8,0a6.23,6.23,0,0,0-1.54-4.27,4.94,4.94,0,0,0-7.55,0,6.65,6.65,0,0,0,0,8.54,4.93,4.93,0,0,0,7.54,0A6.21,6.21,0,0,0,36,39.59Z"></path><path class="cls-2" d="M47.35,48.59H43.41V30.47h3.7v3a8,8,0,0,1,2.68-2.76,6.91,6.91,0,0,1,3.53-.87,5.88,5.88,0,0,1,3.34.89,5.47,5.47,0,0,1,2,2.7,9.33,9.33,0,0,1,2.9-2.73,7,7,0,0,1,3.5-.86,6.38,6.38,0,0,1,3,.66,4.56,4.56,0,0,1,2.46,3.34,13.63,13.63,0,0,1,.15,2.35V48.59H66.72V39.28q0-3.65-.74-4.81a2.87,2.87,0,0,0-2.62-1.16A3.62,3.62,0,0,0,60,34.87q-1,1.56-1,5.46v8.26h-4V39.28a9.91,9.91,0,0,0-.77-4.66,2.84,2.84,0,0,0-2.66-1.3,4.18,4.18,0,0,0-2.13.55A4.09,4.09,0,0,0,48,35.4a4.49,4.49,0,0,0-.51,1.55,25.72,25.72,0,0,0-.15,3.38Z"></path><path class="cls-2" d="M75,48.59V30.47h3.7v3A7.58,7.58,0,0,1,81.5,30.7a8.1,8.1,0,0,1,3.89-.86,7.62,7.62,0,0,1,3.28.64,4.83,4.83,0,0,1,2.12,1.9,5.34,5.34,0,0,1,.65,1.74,20.44,20.44,0,0,1,.2,3.48v11h-4V39.28q0-3.57-.83-4.75a3.34,3.34,0,0,0-2.93-1.18,5.47,5.47,0,0,0-2.46.54,4.14,4.14,0,0,0-1.7,1.51,4.25,4.25,0,0,0-.61,1.67A21.77,21.77,0,0,0,79,40.33v8.26Z"></path><path class="cls-2" d="M95.61,22.63a2.53,2.53,0,0,1,.74-1.82A2.35,2.35,0,0,1,98.1,20a2.32,2.32,0,0,1,1.75.74,2.57,2.57,0,0,1,.7,1.84,2.62,2.62,0,0,1-.71,1.86,2.3,2.3,0,0,1-1.74.76,2.33,2.33,0,0,1-1.75-.77A2.59,2.59,0,0,1,95.61,22.63Zm.53,26V30.47h3.94V48.59Z"></path><path class="cls-2" d="M105.77,33.39a2.42,2.42,0,0,1,.7-1.74,2.34,2.34,0,0,1,3.37,0,2.42,2.42,0,0,1,.69,1.76,2.48,2.48,0,0,1-.69,1.78,2.33,2.33,0,0,1-3.38,0A2.48,2.48,0,0,1,105.77,33.39Zm0,13.08a2.48,2.48,0,0,1,.7-1.76,2.3,2.3,0,0,1,3.37,0,2.48,2.48,0,0,1,.69,1.78,2.43,2.43,0,0,1-.69,1.75,2.35,2.35,0,0,1-3.38,0A2.43,2.43,0,0,1,105.77,46.47Z"></path><path class="cls-2" d="M119.9,30.47V40.68a5.59,5.59,0,0,0,1,3.78,5.49,5.49,0,0,0,6.72,0,5.59,5.59,0,0,0,1-3.78V30.47h3.94v9q0,5.2-2,7.55t-6.32,2.35q-4.41,0-6.39-2.33t-2-7.57v-9Z"></path><path class="cls-2" d="M135,45.3l3.27-1.87a3.58,3.58,0,0,0,1.34,2.06,4.21,4.21,0,0,0,2.52.71,3.11,3.11,0,0,0,2.08-.64,2.17,2.17,0,0,0,.75-1.75q0-1.47-2.69-2.52-.91-.34-1.4-.57a11.18,11.18,0,0,1-3.86-2.45,4.4,4.4,0,0,1-1.1-3,4.89,4.89,0,0,1,1.81-3.94,7.22,7.22,0,0,1,4.78-1.51,7.08,7.08,0,0,1,3.42.77,4.66,4.66,0,0,1,2.08,2.21l-2.8,2a2.68,2.68,0,0,0-1.08-1.37,3.19,3.19,0,0,0-1.79-.51,2.74,2.74,0,0,0-1.81.56,1.85,1.85,0,0,0-.68,1.5q0,1.41,3.05,2.58,1,.36,1.49.59a8.66,8.66,0,0,1,3.4,2.25,4.77,4.77,0,0,1,1,3.13A5.21,5.21,0,0,1,147,47.8a7.89,7.89,0,0,1-5.16,1.54,8.09,8.09,0,0,1-4.19-1A6.65,6.65,0,0,1,135,45.3Z">
</path></svg>